<svg width="111" height="34" viewBox="0 0 111 34" fill="none" xmlns="http://www.w3.org/2000/svg">
<path d="M5.83696 27.2959C5.83696 27.8655 5.9656 28.3639 6.22287 28.7911C6.50873 29.1899 6.89464 29.5032 7.3806 29.731C7.86656 29.9304 8.42399 30.0301 9.05288 30.0301C9.88187 30.0301 10.6394 29.8592 11.3255 29.5174C12.0401 29.1756 12.6118 28.6772 13.0406 28.0222C13.4694 27.3671 13.6838 26.5554 13.6838 25.587L14.3699 28.1503C14.3699 29.4035 14.0125 30.4573 13.2979 31.3117C12.6118 32.1661 11.7114 32.807 10.5965 33.2342C9.51026 33.6614 8.36682 33.875 7.16621 33.875C5.90842 33.875 4.75069 33.6329 3.69301 33.1487C2.66392 32.6646 1.83492 31.9668 1.20603 31.0554C0.577141 30.1155 0.262695 28.9763 0.262695 27.6377C0.262695 26.3845 0.562848 25.288 1.16315 24.3481C1.76346 23.4082 2.63533 22.6962 3.77877 22.212C4.92221 21.6994 6.32292 21.443 7.98091 21.443C9.2101 21.443 10.2964 21.5712 11.2397 21.8275C12.2116 22.0554 13.0263 22.3544 13.6838 22.7247C14.3699 23.0949 14.8558 23.451 15.1417 23.7927V26.4415C14.3699 25.8434 13.498 25.4161 12.5261 25.1598C11.5542 24.875 10.5394 24.7326 9.48167 24.7326C8.62409 24.7326 7.92373 24.8323 7.3806 25.0317C6.86605 25.231 6.48014 25.5158 6.22287 25.8861C5.9656 26.2563 5.83696 26.7263 5.83696 27.2959ZM3.65013 19.3497L1.59194 15.5902C2.62104 15.0491 3.87882 14.5364 5.36529 14.0522C6.85176 13.5396 8.50975 13.2832 10.3392 13.2832C12.0258 13.2832 13.5266 13.5253 14.8415 14.0095C16.1565 14.4937 17.1856 15.2057 17.9288 16.1456C18.7006 17.057 19.0866 18.1677 19.0866 19.4779V33.4478H13.6838V20.7168C13.6838 20.1756 13.5838 19.7199 13.3837 19.3497C13.2121 18.951 12.9549 18.6234 12.6118 18.3671C12.2688 18.1108 11.8543 17.9256 11.3683 17.8117C10.8824 17.6978 10.3392 17.6408 9.73894 17.6408C8.82419 17.6408 7.95232 17.7548 7.12333 17.9826C6.29433 18.182 5.57969 18.4098 4.97938 18.6661C4.37907 18.9225 3.93599 19.1503 3.65013 19.3497Z" fill="white"/>
<path d="M28.8408 13.7959V33.4478H23.3523V13.7959H28.8408ZM34.6295 19.606C34.2579 19.2642 33.872 19.0079 33.4718 18.837C33.1002 18.6377 32.6285 18.538 32.0568 18.538C31.3707 18.538 30.7847 18.7231 30.2987 19.0934C29.8128 19.4636 29.4411 19.9905 29.1839 20.6741C28.9552 21.3291 28.8408 22.1266 28.8408 23.0665L27.2972 21.4858C27.2972 19.9193 27.5974 18.538 28.1977 17.3418C28.798 16.1171 29.5698 15.1487 30.5131 14.4367C31.485 13.7247 32.4998 13.3687 33.5575 13.3687C34.2722 13.3687 34.9582 13.4968 35.6157 13.7532C36.2732 14.0095 36.7877 14.3797 37.1594 14.8639L34.6295 19.606Z" fill="white"/>
<path d="M42.8623 23.6218C42.8623 24.7611 43.1052 25.7579 43.5912 26.6123C44.1058 27.4668 44.7918 28.1361 45.6494 28.6203C46.507 29.076 47.4646 29.3038 48.5223 29.3038C49.3799 29.3038 50.2089 29.1756 51.0093 28.9193C51.8097 28.663 52.5243 28.307 53.1532 27.8513C53.8107 27.3671 54.3109 26.8117 54.654 26.1851V31.8671C53.9679 32.4937 53.0674 32.9921 51.9526 33.3623C50.8663 33.7041 49.6086 33.875 48.1793 33.875C46.0639 33.875 44.1629 33.4478 42.4763 32.5934C40.8184 31.7389 39.5034 30.5427 38.5315 29.0048C37.5881 27.4383 37.1165 25.644 37.1165 23.6218C37.1165 21.5712 37.5881 19.7769 38.5315 18.2389C39.5034 16.701 40.8184 15.5047 42.4763 14.6503C44.1629 13.7959 46.0639 13.3687 48.1793 13.3687C49.6086 13.3687 50.8663 13.5538 51.9526 13.9241C53.0674 14.2943 53.9679 14.7642 54.654 15.3339V21.0585C54.3109 20.432 53.7964 19.8908 53.1103 19.4351C52.4529 18.951 51.7239 18.5807 50.9235 18.3244C50.1231 18.0396 49.3227 17.8972 48.5223 17.8972C47.4646 17.8972 46.507 18.1535 45.6494 18.6661C44.7918 19.1788 44.1058 19.8623 43.5912 20.7168C43.1052 21.5712 42.8623 22.5396 42.8623 23.6218Z" fill="white"/>
<path d="M64.228 0.125V33.4478H58.6538V0.125H64.228ZM71.4317 21.4858C71.4317 20.6313 71.3174 19.9051 71.0887 19.307C70.8886 18.6804 70.5455 18.2247 70.0596 17.9399C69.5736 17.6266 68.9447 17.4699 68.1729 17.4699C67.4011 17.4699 66.715 17.6408 66.1147 17.9826C65.543 18.2959 65.0856 18.7516 64.7426 19.3497C64.3995 19.9193 64.228 20.6313 64.228 21.4858H63.1132C63.1132 19.9193 63.3847 18.5095 63.9279 17.2563C64.471 16.0032 65.2714 15.0063 66.3291 14.2658C67.3868 13.5253 68.6874 13.1551 70.2311 13.1551C71.7747 13.1551 73.0468 13.4541 74.0473 14.0522C75.0478 14.6218 75.7911 15.462 76.277 16.5728C76.763 17.6835 77.006 19.0649 77.006 20.7168V33.4478H71.4317V21.4858Z" fill="white"/>
<path d="M81.3662 6.19146C81.3662 5.28006 81.6807 4.52532 82.3096 3.92722C82.9384 3.32911 83.7246 3.03006 84.6679 3.03006C85.6112 3.03006 86.3973 3.32911 87.0262 3.92722C87.6837 4.52532 88.0125 5.28006 88.0125 6.19146C88.0125 7.07437 87.6837 7.81487 87.0262 8.41298C86.3973 9.01108 85.6112 9.31013 84.6679 9.31013C83.7246 9.31013 82.9384 9.01108 82.3096 8.41298C81.6807 7.81487 81.3662 7.07437 81.3662 6.19146ZM81.9665 13.7959H87.3264V33.4478H81.9665V13.7959Z" fill="white"/>
<path d="M105.142 21.4858C105.142 20.6313 105.028 19.9051 104.799 19.307C104.599 18.6804 104.256 18.2247 103.77 17.9399C103.284 17.6266 102.655 17.4699 101.883 17.4699C101.111 17.4699 100.425 17.6408 99.8249 17.9826C99.2532 18.2959 98.7958 18.7516 98.4528 19.3497C98.1098 19.9478 97.9383 20.6598 97.9383 21.4858V33.4478H92.364V13.7959H97.9383V16.7864C98.5386 15.6756 99.339 14.8354 100.339 14.2658C101.34 13.6677 102.541 13.3687 103.941 13.3687C105.514 13.3687 106.8 13.6677 107.8 14.2658C108.83 14.8639 109.601 15.7326 110.116 16.8718C110.63 17.9826 110.888 19.3212 110.888 20.8877V33.4478H105.142V21.4858Z" fill="white"/>
</svg>
