<svg width="49" height="49" viewBox="0 0 49 49" fill="none" xmlns="http://www.w3.org/2000/svg">
<path d="M32.6567 39.1236C32.6567 39.3213 32.8828 39.4795 33.1678 39.4795C33.4921 39.5091 33.7182 39.3509 33.7182 39.1236C33.7182 38.9258 33.4921 38.7676 33.2071 38.7676C32.9122 38.738 32.6567 38.8962 32.6567 39.1236ZM35.7134 38.6787C35.7822 38.8764 35.5856 39.1038 35.2908 39.1631C35.0352 39.262 34.7404 39.1631 34.6814 38.9654C34.6224 38.7676 34.8092 38.5402 35.104 38.4513C35.3596 38.3821 35.6446 38.4809 35.7134 38.6787ZM31.3692 38.5106C31.6542 38.5798 31.8508 38.7676 31.8213 38.995C31.7918 39.1928 31.5362 39.3213 31.2414 39.2521C30.9564 39.1829 30.7598 38.995 30.7893 38.7973C30.8188 38.6094 31.0841 38.4809 31.3692 38.5106ZM24.9019 0.625C38.5342 0.625 48.9624 11.0356 48.9624 24.7484C48.9624 35.7127 42.102 45.0951 32.3029 48.3972C31.0448 48.6246 30.6025 47.8436 30.6025 47.2009C30.6025 46.588 30.632 43.2067 30.632 41.1305C30.632 41.1305 37.512 42.6135 38.9569 38.1843C38.9569 38.1843 40.0773 35.3073 41.6892 34.5658C41.6892 34.5658 43.94 33.0136 41.532 33.0433C41.532 33.0433 39.0846 33.241 37.7381 35.594C35.5856 39.4103 31.9785 38.3129 30.573 37.6603C30.347 36.0785 29.7081 34.9811 29.0005 34.3285C34.4947 33.7156 40.038 32.9147 40.038 23.4038C40.038 20.685 39.291 19.3206 37.7184 17.5806C37.974 16.9379 38.8094 14.2883 37.4629 10.8676C35.4087 10.2249 30.6811 13.5369 30.6811 13.5369C28.7154 12.9833 26.6023 12.6966 24.5088 12.6966C22.4153 12.6966 20.3021 12.9833 18.3364 13.5369C18.3364 13.5369 13.6088 10.215 11.5546 10.8676C10.2081 14.2982 11.0435 16.9379 11.2991 17.5806C9.72651 19.3305 8.76331 20.6949 8.76331 23.4038C8.76331 32.9444 14.5524 33.7057 20.0466 34.3285C19.1423 35.1096 18.3757 36.5926 18.3757 38.9159C18.3757 42.2477 18.4052 46.3705 18.4052 47.1812C18.4052 47.8238 17.9531 48.6048 16.7048 48.3774C6.87621 45.0951 0.212398 35.7127 0.212398 24.7484C0.212398 11.0356 11.2696 0.625 24.9019 0.625ZM39.409 34.724C39.5367 34.8229 39.5073 35.0503 39.3402 35.2381C39.1829 35.3963 38.9569 35.4655 38.8291 35.337C38.7013 35.2381 38.7308 35.0107 38.8979 34.8229C39.0551 34.6647 39.2812 34.5955 39.409 34.724ZM40.4705 33.9232C40.5393 34.0517 40.441 34.2099 40.2444 34.3088C40.0871 34.4076 39.8906 34.378 39.8218 34.2396C39.753 34.111 39.8513 33.9528 40.0478 33.854C40.2444 33.7947 40.4017 33.8243 40.4705 33.9232ZM37.286 37.4428C37.4432 37.5714 37.3843 37.868 37.1582 38.0558C36.9322 38.2832 36.6471 38.3129 36.5194 38.1547C36.3916 38.0261 36.4506 37.7295 36.6471 37.5417C36.8634 37.3143 37.1582 37.2846 37.286 37.4428ZM38.4065 35.9895C38.5637 36.0884 38.5637 36.3454 38.4065 36.5728C38.2492 36.8002 37.9838 36.8991 37.8561 36.8002C37.6988 36.6717 37.6988 36.4146 37.8561 36.1872C37.9937 35.9598 38.2492 35.861 38.4065 35.9895Z" fill="white"/>
</svg>
