<svg width="118" height="38" viewBox="0 0 118 38" fill="none" xmlns="http://www.w3.org/2000/svg">
<path d="M36.2926 12.75V25.25L24.4943 31.5V19L36.2926 12.75Z" fill="white"/>
<path d="M24.4943 19V31.5L12.6733 37.75V25.25L24.4943 19Z" fill="white"/>
<path d="M12.6733 37.75L0.875 31.5V19L12.6733 25.25V37.75Z" fill="white"/>
<path d="M0.875 6.5L12.6733 0.25L24.4943 6.5L12.6733 12.75L0.875 6.5Z" fill="white"/>
<path d="M12.6733 25.25L0.875 19V6.5L12.6733 12.75V25.25Z" fill="white"/>
<path d="M52.8727 16.375V15.2244L60.1172 4.69034H52.7939V3.28409H62.0596V4.43466L54.8151 14.9688H62.1383V16.375H52.8727Z" fill="white"/>
<path d="M73.6875 3.28409H75.3149V11.9517C75.3149 12.8466 75.0984 13.6456 74.6653 14.3487C74.2365 15.0476 73.6306 15.5994 72.8476 16.0043C72.0645 16.4048 71.1458 16.6051 70.0915 16.6051C69.0372 16.6051 68.1185 16.4048 67.3355 16.0043C66.5524 15.5994 65.9443 15.0476 65.5112 14.3487C65.0825 13.6456 64.8681 12.8466 64.8681 11.9517V3.28409H66.4955V11.8239C66.4955 12.4631 66.6399 13.032 66.9286 13.5305C67.2173 14.0249 67.6286 14.4148 68.1623 14.7003C68.7004 14.9815 69.3434 15.1222 70.0915 15.1222C70.8396 15.1222 71.4827 14.9815 72.0208 14.7003C72.5588 14.4148 72.9701 14.0249 73.2544 13.5305C73.5432 13.032 73.6875 12.4631 73.6875 11.8239V3.28409Z" fill="white"/>
<path d="M78.5648 3.28409H80.5071L85.0743 14.1506H85.2318L89.799 3.28409H91.7414V16.375H90.219V6.42898H90.0877L85.888 16.375H84.4181L80.2184 6.42898H80.0872V16.375H78.5648V3.28409Z" fill="white"/>
<path d="M95.5555 16.375H93.8494L98.7841 3.28409H100.464L105.399 16.375H103.692L99.6765 5.35511H99.5715L95.5555 16.375ZM96.1855 11.2614H103.063V12.6676H96.1855V11.2614Z" fill="white"/>
<path d="M107.492 16.375V3.28409H112.033C113.083 3.28409 113.945 3.45881 114.618 3.80824C115.292 4.15341 115.791 4.62855 116.114 5.23366C116.438 5.83878 116.6 6.52699 116.6 7.2983C116.6 8.0696 116.438 8.75355 116.114 9.35014C115.791 9.94673 115.294 10.4155 114.625 10.7564C113.956 11.093 113.1 11.2614 112.059 11.2614H108.384V9.82955H112.007C112.724 9.82955 113.302 9.72727 113.739 9.52273C114.181 9.31818 114.5 9.02841 114.697 8.65341C114.898 8.27415 114.999 7.82244 114.999 7.2983C114.999 6.77415 114.898 6.31605 114.697 5.92401C114.496 5.53196 114.174 5.2294 113.732 5.01634C113.291 4.79901 112.707 4.69034 111.98 4.69034H109.119V16.375H107.492ZM113.818 10.4943L117.125 16.375H115.235L111.98 10.4943H113.818Z" fill="white"/>
<path d="M64.1332 25.375H62.5058C62.4095 24.919 62.2411 24.5185 62.0005 24.1733C61.7643 23.8281 61.4755 23.5384 61.1343 23.304C60.7975 23.0653 60.4234 22.8864 60.0122 22.767C59.601 22.6477 59.1723 22.5881 58.726 22.5881C57.9123 22.5881 57.1752 22.7884 56.5146 23.1889C55.8584 23.5895 55.3356 24.1797 54.9463 24.9595C54.5613 25.7393 54.3688 26.696 54.3688 27.8295C54.3688 28.9631 54.5613 29.9197 54.9463 30.6996C55.3356 31.4794 55.8584 32.0696 56.5146 32.4702C57.1752 32.8707 57.9123 33.071 58.726 33.071C59.1723 33.071 59.601 33.0114 60.0122 32.892C60.4234 32.7727 60.7975 32.5959 61.1343 32.3615C61.4755 32.1229 61.7643 31.831 62.0005 31.4858C62.2411 31.1364 62.4095 30.7358 62.5058 30.2841H64.1332C64.0107 30.9531 63.7876 31.5518 63.4638 32.0803C63.1401 32.6087 62.7376 33.0582 62.2564 33.429C61.7752 33.7955 61.2349 34.0746 60.6356 34.2663C60.0406 34.4581 59.4041 34.554 58.726 34.554C57.5799 34.554 56.5606 34.2813 55.6681 33.7358C54.7757 33.1903 54.0735 32.4148 53.5617 31.4091C53.0499 30.4034 52.7939 29.2102 52.7939 27.8295C52.7939 26.4489 53.0499 25.2557 53.5617 24.25C54.0735 23.2443 54.7757 22.4688 55.6681 21.9233C56.5606 21.3778 57.5799 21.1051 58.726 21.1051C59.4041 21.1051 60.0406 21.201 60.6356 21.3928C61.2349 21.5845 61.7752 21.8658 62.2564 22.2365C62.7376 22.603 63.1401 23.0504 63.4638 23.5788C63.7876 24.103 64.0107 24.7017 64.1332 25.375Z" fill="white"/>
<path d="M78.1021 27.8295C78.1021 29.2102 77.8462 30.4034 77.3344 31.4091C76.8225 32.4148 76.1204 33.1903 75.228 33.7358C74.3355 34.2813 73.3162 34.554 72.17 34.554C71.0239 34.554 70.0046 34.2813 69.1121 33.7358C68.2197 33.1903 67.5175 32.4148 67.0057 31.4091C66.4939 30.4034 66.2379 29.2102 66.2379 27.8295C66.2379 26.4489 66.4939 25.2557 67.0057 24.25C67.5175 23.2443 68.2197 22.4688 69.1121 21.9233C70.0046 21.3778 71.0239 21.1051 72.17 21.1051C73.3162 21.1051 74.3355 21.3778 75.228 21.9233C76.1204 22.4688 76.8225 23.2443 77.3344 24.25C77.8462 25.2557 78.1021 26.4489 78.1021 27.8295ZM76.5272 27.8295C76.5272 26.696 76.3326 25.7393 75.9432 24.9595C75.5582 24.1797 75.0355 23.5895 74.3749 23.1889C73.7187 22.7884 72.9837 22.5881 72.17 22.5881C71.3563 22.5881 70.6192 22.7884 69.9586 23.1889C69.3024 23.5895 68.7796 24.1797 68.3903 24.9595C68.0053 25.7393 67.8128 26.696 67.8128 27.8295C67.8128 28.9631 68.0053 29.9197 68.3903 30.6996C68.7796 31.4794 69.3024 32.0696 69.9586 32.4702C70.6192 32.8707 71.3563 33.071 72.17 33.071C72.9837 33.071 73.7187 32.8707 74.3749 32.4702C75.0355 32.0696 75.5582 31.4794 75.9432 30.6996C76.3326 29.9197 76.5272 28.9631 76.5272 27.8295Z" fill="white"/>
<path d="M91.4953 21.2841V34.375H89.9204L82.5971 24.0966H82.4659V34.375H80.8385V21.2841H82.4134L89.7629 31.5881H89.8941V21.2841H91.4953Z" fill="white"/>
<path d="M102.101 24.5568C102.022 23.9091 101.703 23.4063 101.143 23.0483C100.583 22.6903 99.8963 22.5114 99.0827 22.5114C98.4877 22.5114 97.9671 22.6051 97.5209 22.7926C97.079 22.9801 96.7334 23.2379 96.4841 23.5661C96.2391 23.8942 96.1166 24.267 96.1166 24.6847C96.1166 25.0341 96.2019 25.3345 96.3725 25.5859C96.5475 25.8331 96.7706 26.0398 97.0419 26.206C97.3131 26.3679 97.5974 26.5021 97.8949 26.6087C98.1924 26.7109 98.4658 26.794 98.7152 26.858L100.08 27.2159C100.43 27.3054 100.819 27.429 101.248 27.5866C101.681 27.7443 102.095 27.9595 102.488 28.2322C102.886 28.5007 103.215 28.8459 103.473 29.2678C103.731 29.6896 103.86 30.2074 103.86 30.821C103.86 31.5284 103.67 32.1676 103.289 32.7386C102.913 33.3097 102.361 33.7635 101.635 34.1001C100.913 34.4368 100.036 34.6051 99.0039 34.6051C98.0415 34.6051 97.2081 34.4538 96.5038 34.1513C95.8038 33.8487 95.2526 33.4268 94.8501 32.8857C94.452 32.3445 94.2267 31.7159 94.1742 31H95.8541C95.8979 31.4943 96.0685 31.9034 96.366 32.2273C96.6678 32.5469 97.0484 32.7855 97.5078 32.9432C97.9715 33.0966 98.4702 33.1733 99.0039 33.1733C99.6251 33.1733 100.183 33.0753 100.677 32.8793C101.172 32.679 101.563 32.402 101.852 32.0483C102.141 31.6903 102.285 31.2727 102.285 30.7955C102.285 30.3608 102.16 30.0071 101.911 29.7344C101.662 29.4616 101.333 29.2401 100.927 29.0696C100.52 28.8991 100.08 28.75 99.6076 28.6222L97.954 28.1619C96.9041 27.8679 96.0729 27.4482 95.4604 26.9027C94.8479 26.3572 94.5417 25.6435 94.5417 24.7614C94.5417 24.0284 94.7451 23.3892 95.152 22.8438C95.5632 22.294 96.1144 21.8679 96.8056 21.5653C97.5012 21.2585 98.2777 21.1051 99.1351 21.1051C100.001 21.1051 100.771 21.2564 101.445 21.5589C102.119 21.8572 102.652 22.2663 103.046 22.7862C103.444 23.3061 103.654 23.8963 103.676 24.5568H102.101Z" fill="white"/>
</svg>
