<svg width="101" height="35" viewBox="0 0 101 35" fill="none" xmlns="http://www.w3.org/2000/svg">
<path fill-rule="evenodd" clip-rule="evenodd" d="M12.7716 5.0568C14.8358 7.12724 16.3216 9.6694 17.1247 12.4307C17.5775 13.9875 17.8132 15.6141 17.8132 17.265C17.8132 18.9159 17.5775 20.5424 17.1247 22.0993C16.3216 24.8606 14.8358 27.4027 12.7716 29.4732C9.70618 32.5478 5.60359 34.343 1.28862 34.5161C1.05967 34.5253 0.830122 34.5299 0.600098 34.5299L0.600101 0C0.830125 0 1.05967 0.00461801 1.28863 0.0138029C5.60359 0.186906 9.70618 1.98213 12.7716 5.0568ZM12.2848 28.9848C9.34846 31.93 5.4209 33.6523 1.28862 33.825L1.28863 0.704978C5.42091 0.877675 9.34846 2.59998 12.2848 5.54512C15.3837 8.65342 17.1247 12.8692 17.1247 17.265C17.1247 21.6608 15.3837 25.8765 12.2848 28.9848Z" fill="white"/>
<path fill-rule="evenodd" clip-rule="evenodd" d="M17.8132 17.265L17.8132 0C18.0433 0 18.2728 0.00461801 18.5018 0.0138029C22.8167 0.186906 26.9193 1.98213 29.9847 5.0568C33.2128 8.29461 35.0264 12.686 35.0264 17.265C35.0264 21.8439 33.2128 26.2353 29.9847 29.4732C26.9193 32.5478 22.8167 34.343 18.5017 34.5161C18.2728 34.5253 18.0432 34.5299 17.8132 34.5299L17.8132 17.265ZM18.5018 0.704978C22.634 0.877675 26.5616 2.59998 29.4979 5.54512C32.5968 8.65342 34.3378 12.8692 34.3378 17.265C34.3378 21.6608 32.5968 25.8765 29.4979 28.9848C26.5616 31.93 22.634 33.6523 18.5017 33.825L18.5018 0.704978Z" fill="white"/>
<path fill-rule="evenodd" clip-rule="evenodd" d="M65.6843 7.05794L64.584 9.6684H63.4067L67.4345 0.531775L71.4624 9.6684H70.285L69.1789 7.05794H65.6843ZM66.1089 6.06347H68.7635L67.4345 2.93091L66.1089 6.06347Z" fill="white"/>
<path d="M57.8686 7.03307C58.0669 7.38114 58.2735 7.68776 58.4883 7.95295C58.7114 8.21814 58.9593 8.42532 59.2319 8.57449C59.5046 8.72366 59.8144 8.79824 60.1614 8.79824C60.4754 8.79824 60.7439 8.74023 60.967 8.62421C61.1983 8.50819 61.376 8.34659 61.4999 8.13941C61.6321 7.93223 61.6982 7.69605 61.6982 7.43086C61.6982 7.04136 61.6073 6.73059 61.4256 6.49855C61.2438 6.26651 61.0042 6.08005 60.7067 5.93916C60.4176 5.79 60.1077 5.6574 59.7772 5.54138C59.5624 5.46679 59.3228 5.37149 59.0584 5.25547C58.794 5.13116 58.542 4.97785 58.3024 4.79553C58.0628 4.60493 57.8645 4.37289 57.7075 4.09941C57.5588 3.82593 57.4844 3.4903 57.4844 3.09252C57.4844 2.66158 57.5918 2.27623 57.8067 1.93645C58.0215 1.59668 58.3189 1.33149 58.699 1.14088C59.0791 0.94199 59.5128 0.842544 60.0003 0.842544C60.4713 0.842544 60.8802 0.933703 61.2273 1.11602C61.5825 1.29005 61.8841 1.51795 62.132 1.79971C62.3799 2.07319 62.574 2.36324 62.7145 2.66987L61.8098 3.19196C61.7023 2.97649 61.566 2.76517 61.4008 2.55799C61.2355 2.35081 61.0331 2.18093 60.7935 2.04833C60.5621 1.91573 60.2771 1.84944 59.9383 1.84944C59.6244 1.84944 59.3682 1.9033 59.1699 2.01104C58.9717 2.11877 58.8229 2.25551 58.7238 2.42125C58.6329 2.587 58.5875 2.76517 58.5875 2.95578C58.5875 3.1381 58.6205 3.30798 58.6866 3.46544C58.7527 3.6229 58.8601 3.77206 59.0088 3.91295C59.1658 4.05383 59.3724 4.19057 59.6285 4.32316C59.8929 4.45576 60.2151 4.58835 60.5952 4.72095C60.8265 4.80382 61.0703 4.91155 61.3264 5.04415C61.5825 5.17674 61.818 5.34663 62.0328 5.55381C62.2559 5.7527 62.4377 5.99718 62.5781 6.28723C62.7186 6.56899 62.7888 6.90877 62.7888 7.30655C62.7888 7.68776 62.7145 8.03168 62.5658 8.33831C62.4253 8.64493 62.227 8.90598 61.9709 9.12145C61.723 9.33691 61.4379 9.50266 61.1157 9.61868C60.8018 9.7347 60.4713 9.79271 60.1242 9.79271C59.6533 9.79271 59.2154 9.69326 58.8105 9.49437C58.4139 9.28719 58.0628 9.01786 57.7571 8.68637C57.4597 8.34659 57.2159 7.9861 57.0259 7.60489L57.8686 7.03307Z" fill="white"/>
<path d="M49.7264 0.966852H50.7799V6.80932C50.7799 7.2071 50.8501 7.55517 50.9906 7.85351C51.1393 8.15184 51.3541 8.38389 51.635 8.54963C51.9159 8.71537 52.263 8.79824 52.6761 8.79824C53.0892 8.79824 53.4362 8.71537 53.7171 8.54963C53.998 8.38389 54.2087 8.15184 54.3492 7.85351C54.4979 7.55517 54.5723 7.2071 54.5723 6.80932V0.966852H55.6257V6.80932C55.6257 7.24025 55.5555 7.63804 55.415 8.00267C55.2828 8.36731 55.0845 8.68222 54.8201 8.94741C54.564 9.2126 54.2542 9.41978 53.8906 9.56895C53.5271 9.71812 53.1222 9.79271 52.6761 9.79271C52.2299 9.79271 51.8251 9.71812 51.4615 9.56895C51.098 9.41978 50.784 9.2126 50.5196 8.94741C50.2635 8.68222 50.0652 8.36731 49.9247 8.00267C49.7925 7.63804 49.7264 7.24025 49.7264 6.80932V0.966852Z" fill="white"/>
<path d="M49.7884 13.3976H50.8418V22.0992H49.7884V13.3976Z" fill="white"/>
<path d="M60.4482 13.3976H59.3948V19.8741L52.8262 12.9626V22.0992H53.8797V15.6227L60.4482 22.5343V13.3976Z" fill="white"/>
<path d="M61.5685 14.3921V13.3976H67.0836V14.3921H64.8527V22.0992H63.7993V14.3921H61.5685Z" fill="white"/>
<path d="M73.1544 21.1047H69.2505V17.8727H72.9065V16.8783H69.2505V14.3921H73.1544V13.3976H68.197V22.0992H73.1544V21.1047Z" fill="white"/>
<path fill-rule="evenodd" clip-rule="evenodd" d="M76.0645 18.6186H77.1206L79.5346 22.0992H80.8359L78.251 18.5212C78.4678 18.4701 78.6726 18.399 78.8654 18.3078C79.3115 18.0923 79.6627 17.7898 79.9188 17.4003C80.1832 17.0026 80.3154 16.5385 80.3154 16.0081C80.3154 15.4694 80.1832 15.0053 79.9188 14.6158C79.6627 14.2264 79.3115 13.928 78.8654 13.7208C78.4275 13.5054 77.9276 13.3976 77.3658 13.3976H75.011V22.0992H76.0645V18.6186ZM77.3658 14.3299H76.0645V17.6863H77.3658C77.7376 17.6863 78.0639 17.62 78.3448 17.4874C78.634 17.3548 78.8571 17.1642 79.0141 16.9155C79.1793 16.6669 79.262 16.3644 79.262 16.0081C79.262 15.6517 79.1793 15.3493 79.0141 15.1006C78.8571 14.852 78.634 14.6614 78.3448 14.5288C78.0639 14.3962 77.7376 14.3299 77.3658 14.3299Z" fill="white"/>
<path d="M82.9995 13.3976H81.946V22.0992H82.9995V13.3976Z" fill="white"/>
<path fill-rule="evenodd" clip-rule="evenodd" d="M84.4881 17.7484C84.4881 17.1103 84.5955 16.5219 84.8104 15.9832C85.0334 15.4363 85.3433 14.9639 85.7399 14.5661C86.1365 14.1601 86.6033 13.8451 87.1403 13.6214C87.6774 13.3893 88.2599 13.2733 88.8878 13.2733C89.524 13.2733 90.1065 13.3893 90.6353 13.6214C91.1723 13.8451 91.6391 14.1601 92.0357 14.5661C92.4323 14.9639 92.738 15.4363 92.9529 15.9832C93.1759 16.5219 93.2875 17.1103 93.2875 17.7484C93.2875 18.3782 93.1759 18.9666 92.9529 19.5136C92.738 20.0605 92.4323 20.537 92.0357 20.9431C91.6391 21.3409 91.1723 21.6558 90.6353 21.8879C90.1065 22.1116 89.524 22.2235 88.8878 22.2235C88.2599 22.2235 87.6774 22.1116 87.1403 21.8879C86.6033 21.6558 86.1365 21.3409 85.7399 20.9431C85.3433 20.537 85.0334 20.0605 84.8104 19.5136C84.5955 18.9666 84.4881 18.3782 84.4881 17.7484ZM85.6035 17.7484C85.6035 18.2373 85.682 18.6931 85.839 19.1158C86.0043 19.5302 86.2356 19.8906 86.533 20.1973C86.8305 20.5039 87.1775 20.7442 87.5741 20.9183C87.9789 21.084 88.4169 21.1669 88.8878 21.1669C89.3588 21.1669 89.7925 21.084 90.1891 20.9183C90.594 20.7442 90.9451 20.5039 91.2426 20.1973C91.54 19.8906 91.7672 19.5302 91.9242 19.1158C92.0894 18.6931 92.1721 18.2373 92.1721 17.7484C92.1721 17.2595 92.0894 16.8078 91.9242 16.3935C91.7672 15.9708 91.54 15.6062 91.2426 15.2995C90.9451 14.9929 90.594 14.7567 90.1891 14.591C89.7925 14.417 89.3588 14.3299 88.8878 14.3299C88.4169 14.3299 87.9789 14.417 87.5741 14.591C87.1775 14.7567 86.8305 14.9929 86.533 15.2995C86.2356 15.6062 86.0043 15.9708 85.839 16.3935C85.682 16.8078 85.6035 17.2595 85.6035 17.7484Z" fill="white"/>
<path fill-rule="evenodd" clip-rule="evenodd" d="M96.8848 18.6186H95.8286V22.0992H94.7752V13.3976H97.1299C97.6918 13.3976 98.1916 13.5054 98.6295 13.7208C99.0757 13.928 99.4269 14.2264 99.683 14.6158C99.9474 15.0053 100.08 15.4694 100.08 16.0081C100.08 16.5385 99.9474 17.0026 99.683 17.4003C99.4269 17.7898 99.0757 18.0923 98.6295 18.3078C98.4368 18.399 98.232 18.4701 98.0151 18.5212L100.6 22.0992H99.2988L96.8848 18.6186ZM95.8286 14.3299H97.1299C97.5017 14.3299 97.8281 14.3962 98.109 14.5288C98.3982 14.6614 98.6213 14.852 98.7783 15.1006C98.9435 15.3493 99.0261 15.6517 99.0261 16.0081C99.0261 16.3644 98.9435 16.6669 98.7783 16.9155C98.6213 17.1642 98.3982 17.3548 98.109 17.4874C97.8281 17.62 97.5017 17.6863 97.1299 17.6863H95.8286V14.3299Z" fill="white"/>
<path fill-rule="evenodd" clip-rule="evenodd" d="M49.7884 25.8284H52.391C53.0272 25.8284 53.6097 25.932 54.1385 26.1392C54.6673 26.3464 55.1217 26.6447 55.5018 27.0342C55.8901 27.4154 56.1917 27.8754 56.4065 28.414C56.6213 28.9444 56.7287 29.5328 56.7287 30.1792C56.7287 30.8256 56.6213 31.4181 56.4065 31.9568C56.1917 32.4872 55.8901 32.9471 55.5018 33.3366C55.1217 33.7178 54.6673 34.012 54.1385 34.2192C53.6097 34.4264 53.0272 34.53 52.391 34.53H49.7884V25.8284ZM50.8418 33.4733V26.885H52.391C52.8785 26.885 53.3247 26.9638 53.7295 27.1212C54.1344 27.2704 54.4814 27.49 54.7706 27.78C55.0597 28.0618 55.2828 28.4057 55.4398 28.8118C55.5968 29.2179 55.6753 29.6737 55.6753 30.1792C55.6753 30.6847 55.5968 31.1405 55.4398 31.5466C55.2828 31.9526 55.0597 32.3007 54.7706 32.5908C54.4814 32.8725 54.1344 33.0921 53.7295 33.2496C53.3247 33.3988 52.8785 33.4733 52.391 33.4733H50.8418Z" fill="white"/>
<path d="M63.1695 33.5355H59.2655V30.3035H62.9216V29.309H59.2655V26.8229H63.1695V25.8284H58.2121V34.53H63.1695V33.5355Z" fill="white"/>
<path d="M65.3483 31.8946C65.5466 32.2427 65.7531 32.5493 65.968 32.8145C66.191 33.0797 66.4389 33.2869 66.7116 33.4361C66.9842 33.5852 67.2941 33.6598 67.6411 33.6598C67.955 33.6598 68.2236 33.6018 68.4466 33.4858C68.678 33.3698 68.8556 33.2082 68.9796 33.001C69.1118 32.7938 69.1779 32.5576 69.1779 32.2924C69.1779 31.9029 69.087 31.5922 68.9052 31.3601C68.7234 31.1281 68.4838 30.9416 68.1864 30.8007C67.8972 30.6516 67.5874 30.519 67.2569 30.4029C67.042 30.3284 66.8024 30.2331 66.538 30.117C66.2737 29.9927 66.0217 29.8394 65.7821 29.6571C65.5424 29.4665 65.3441 29.2344 65.1872 28.961C65.0384 28.6875 64.9641 28.3519 64.9641 27.9541C64.9641 27.5231 65.0715 27.1378 65.2863 26.798C65.5011 26.4582 65.7986 26.1931 66.1786 26.0024C66.5587 25.8036 66.9925 25.7041 67.48 25.7041C67.9509 25.7041 68.3599 25.7953 68.7069 25.9776C69.0622 26.1516 69.3638 26.3795 69.6116 26.6613C69.8595 26.9348 70.0537 27.2248 70.1941 27.5314L69.2894 28.0535C69.182 27.8381 69.0457 27.6267 68.8804 27.4196C68.7152 27.2124 68.5127 27.0425 68.2731 26.9099C68.0418 26.7773 67.7567 26.711 67.418 26.711C67.104 26.711 66.8479 26.7649 66.6496 26.8726C66.4513 26.9803 66.3026 27.1171 66.2034 27.2828C66.1125 27.4486 66.0671 27.6267 66.0671 27.8173C66.0671 27.9997 66.1001 28.1695 66.1662 28.327C66.2323 28.4845 66.3398 28.6336 66.4885 28.7745C66.6455 28.9154 66.852 29.0521 67.1081 29.1847C67.3725 29.3173 67.6948 29.4499 68.0748 29.5825C68.3062 29.6654 68.5499 29.7731 68.8061 29.9057C69.0622 30.0383 69.2977 30.2082 69.5125 30.4154C69.7356 30.6143 69.9173 30.8587 70.0578 31.1488C70.1982 31.4306 70.2685 31.7703 70.2685 32.1681C70.2685 32.5493 70.1941 32.8932 70.0454 33.1999C69.9049 33.5065 69.7066 33.7675 69.4505 33.983C69.2026 34.1985 68.9176 34.3642 68.5954 34.4802C68.2814 34.5963 67.9509 34.6543 67.6039 34.6543C67.1329 34.6543 66.695 34.5548 66.2902 34.3559C65.8936 34.1488 65.5424 33.8794 65.2367 33.5479C64.9393 33.2082 64.6956 32.8477 64.5055 32.4665L65.3483 31.8946Z" fill="white"/>
<path d="M72.8693 25.8284H71.8158V34.53H72.8693V25.8284Z" fill="white"/>
<path d="M78.8815 31.1115V30.117H82.9094C82.9094 30.722 82.8185 31.298 82.6368 31.8449C82.455 32.3836 82.1865 32.8642 81.8312 33.2869C81.4759 33.7095 81.038 34.0452 80.5175 34.2938C80.0052 34.5341 79.4186 34.6543 78.7576 34.6543C78.1297 34.6543 77.5472 34.5465 77.0101 34.3311C76.4731 34.1073 76.0063 33.7965 75.6097 33.3988C75.2131 32.9927 74.9032 32.5162 74.6802 31.9692C74.4653 31.4223 74.3579 30.8256 74.3579 30.1792C74.3579 29.5328 74.4653 28.9361 74.6802 28.3892C74.9032 27.8422 75.2131 27.3698 75.6097 26.972C76.0063 26.566 76.4731 26.2552 77.0101 26.0397C77.5472 25.816 78.1297 25.7041 78.7576 25.7041C79.2947 25.7041 79.7863 25.7745 80.2324 25.9154C80.6869 26.0563 81.0917 26.2635 81.447 26.537C81.8105 26.8104 82.1162 27.1502 82.3641 27.5563L81.6205 28.24C81.3478 27.7759 80.9678 27.4154 80.4803 27.1585C79.9928 26.8933 79.4186 26.7607 78.7576 26.7607C78.3032 26.7607 77.8735 26.8436 77.4687 27.0093C77.0721 27.1751 76.7251 27.4113 76.4276 27.7179C76.1302 28.0162 75.8947 28.3767 75.7212 28.7994C75.556 29.2137 75.4733 29.6737 75.4733 30.1792C75.4733 30.6847 75.556 31.1488 75.7212 31.5714C75.8947 31.9858 76.1302 32.3463 76.4276 32.6529C76.7251 32.9513 77.0721 33.1833 77.4687 33.349C77.8735 33.5148 78.3032 33.5977 78.7576 33.5977C79.1872 33.5977 79.5714 33.5355 79.9102 33.4112C80.2572 33.2786 80.5547 33.0963 80.8025 32.8642C81.0504 32.6322 81.2528 32.367 81.4098 32.0687C81.5751 31.7703 81.6949 31.4513 81.7692 31.1115H78.8815Z" fill="white"/>
<path d="M92.0854 25.8284H91.032V32.3049L84.4634 25.3933V34.53H85.5169V28.0535L92.0854 34.965V25.8284Z" fill="white"/>
</svg>
